<svg width="58" height="50" viewBox="0 0 58 50" fill="none" xmlns="http://www.w3.org/2000/svg">
<g id="Group">
<path id="Vector" d="M14.521 0.275077C13.2825 2.20168 11.5393 5.43563 11.677 5.57324C11.7687 5.66498 18.1449 5.77966 25.8283 5.8026C38.5806 5.84847 39.7962 5.87141 39.865 6.21544C39.9109 6.4448 39.4981 7.29343 38.9935 8.14205C38.466 9.01361 37.9384 9.93104 37.8237 10.1833C37.6861 10.4586 37.4568 10.9173 37.2733 11.2154C37.1127 11.5365 37.021 11.8806 37.0669 11.9723C37.2504 12.2705 50.232 12.1787 50.232 11.8806C50.232 11.743 49.9338 11.1237 49.5439 10.5044C49.154 9.9081 48.8559 9.31177 48.8559 9.19709C48.8559 9.10535 48.5577 8.57783 48.1678 8.07324C47.8008 7.54572 47.4797 7.04113 47.4797 6.97232C47.4797 6.88058 47.0439 6.07783 46.4935 5.18333C45.943 4.28884 45.4384 3.39434 45.3467 3.21086C45.2549 3.02737 44.9797 2.54572 44.7274 2.17875C44.4751 1.78884 44.154 1.23838 44.0393 0.917279C43.9017 0.619113 43.6494 0.275077 43.5118 0.183333C43.3513 0.0915904 36.8146 -0.000152588 28.9705 -0.000152588C17.8008 -0.000152588 14.6586 0.0686549 14.521 0.275077ZM7.43384 12.6833C7.25036 12.798 6.99806 13.0962 6.86045 13.3714C6.74577 13.6466 6.56228 14.0365 6.42467 14.22C5.78246 15.2063 4.13109 18.0732 4.13109 18.2109C4.13109 18.3026 3.9476 18.6466 3.69531 18.9907C3.46595 19.3347 2.68613 20.642 1.95219 21.9035C1.21824 23.165 0.530171 24.22 0.415492 24.2659C0.0943909 24.4035 0.20907 25.0916 0.736593 25.9173C1.6999 27.431 1.81457 27.6375 2.04393 28.142C2.45678 29.0595 3.44302 30.5044 3.64944 30.5044C3.76412 30.5044 4.10815 29.9998 4.42925 29.4035C5.55311 27.2705 8.25953 22.5687 8.97054 21.5136C9.22283 21.1696 9.40632 20.8255 9.40632 20.7567C9.40632 20.6879 10.1861 19.3347 11.1265 17.7521C12.0669 16.1696 12.8467 14.8164 12.8467 14.7246C12.8467 14.6558 13.1219 14.1971 13.443 13.7154C13.7871 13.2338 13.9935 12.7521 13.9017 12.6604C13.6494 12.431 7.84669 12.454 7.43384 12.6833ZM22.7549 12.6145C21.7228 12.7292 21.7228 12.7292 20.6219 14.9081C20.3467 15.4815 19.7733 16.4448 19.3834 17.087C18.9705 17.7063 18.3054 18.8531 17.8926 19.6099C17.4797 20.3668 17.021 21.1466 16.8834 21.3301C16.7458 21.5136 16.4247 22.0411 16.1724 22.4769C15.3696 23.9219 14.7045 25.0916 14.2228 25.9173C13.3971 27.3164 12.8008 28.3485 10.1403 32.9815L7.52558 37.4998L7.93843 38.3026C8.16779 38.7384 8.78705 39.8164 9.31457 40.7109C9.81916 41.5824 10.3237 42.5457 10.4155 42.8209C10.5072 43.1191 10.6678 43.3485 10.7595 43.3485C10.8513 43.3485 11.1494 43.7842 11.4476 44.3118C11.7228 44.8622 12.1586 45.5962 12.4109 45.9861C12.6403 46.3531 12.9843 46.9723 13.1678 47.3622C13.3513 47.7292 13.81 48.4861 14.1999 49.0365L14.9109 49.9998H43.3742L43.7641 49.3118C43.9705 48.9448 44.2228 48.6237 44.3375 48.6237C44.4293 48.6237 44.4981 48.509 44.4981 48.3714C44.4981 48.2338 44.8421 47.5228 45.2779 46.8118C45.6907 46.1008 46.3329 44.9998 46.677 44.3806C47.021 43.7384 48.0072 42.0411 48.8559 40.5962C54.0852 31.6742 53.9935 31.8576 53.6494 31.6283C53.466 31.5136 53.0302 31.4677 52.6632 31.5365C52.2962 31.6054 50.943 31.6512 49.6586 31.6512H47.2962L45.8742 34.1054C45.0944 35.4815 43.5806 38.0503 42.5256 39.8393C41.4705 41.6283 40.599 43.1879 40.599 43.3255C40.599 44.0136 39.5439 44.0824 28.8329 44.0595C22.8926 44.0365 18.0302 44.0136 18.0072 43.9677C17.4109 43.2109 14.4522 37.8668 14.4522 37.5916C14.4522 37.3622 14.9109 36.3989 15.4843 35.4815C16.0577 34.5411 16.5164 33.6925 16.5164 33.6237C16.5164 33.532 16.7687 33.1191 17.0898 32.7063C17.4109 32.2934 17.6632 31.8806 17.6632 31.7888C17.6632 31.6971 18.1907 30.7567 18.81 29.6787C19.4522 28.6008 19.9568 27.7063 19.9568 27.6604C19.9568 27.5687 22.5715 23.0962 23.5118 21.6054C23.8559 21.0778 24.3834 20.1604 24.6815 19.5641C25.0027 18.9677 25.7825 17.6375 26.4017 16.5824C27.021 15.5274 27.5256 14.6099 27.5256 14.5182C27.5256 14.4494 27.8008 14.0365 28.1219 13.6008C28.443 13.165 28.6494 12.7521 28.5806 12.6604C28.3971 12.4769 24.154 12.454 22.7549 12.6145Z" fill="black"/>
<path id="Vector_2" d="M32.5944 19.4722C32.2733 19.8392 31.7458 20.6419 31.4247 21.2383C30.6678 22.7291 29.9797 23.9676 24.2917 33.7612C23.7871 34.5869 23.3972 35.3667 23.3972 35.4584C23.3972 35.5502 23.1678 35.8713 22.9155 36.1465C22.2963 36.8117 22.4797 37.4997 23.2366 37.2933C23.5119 37.2245 26.5853 37.1557 30.0715 37.1557H36.3788L36.8834 36.1695C37.5256 34.9309 38.3284 33.5318 38.8559 32.752C39.5669 31.674 39.3605 31.5823 35.9889 31.5594C32.9843 31.5364 32.9155 31.5364 32.8467 31.0318C32.8009 30.7107 33.2366 29.7245 33.9706 28.5089C34.6357 27.408 35.3697 26.1236 35.599 25.6419L36.0119 24.7704H46.7917C53.5578 24.7704 57.5715 24.6786 57.5715 24.541C57.5715 24.2887 54.911 19.7704 54.4064 19.197C54.0853 18.83 53.3284 18.8071 43.6266 18.8071L33.1908 18.83L32.5944 19.4722Z" fill="black"/>
</g>
</svg>
